<mxfile host="app.diagrams.net" agent="Mozilla/5.0 (Macintosh; Intel Mac OS X 10_15_7) AppleWebKit/537.36 (KHTML, like Gecko) Chrome/113.0.0.0 Safari/537.36" version="27.0.4">
  <diagram id="BeJag3072nejRU3lOnjM" name="Page-1">
    <mxGraphModel dx="740" dy="1397" grid="1" gridSize="10" guides="1" tooltips="1" connect="1" arrows="1" fold="1" page="0" pageScale="1" pageWidth="827" pageHeight="1169" background="none" math="0" shadow="0">
      <root>
        <mxCell id="0" />
        <mxCell id="1" parent="0" />
        <mxCell id="node4" value="&lt;p style=&quot;margin:0px;margin-top:4px;text-align:center;&quot;&gt;&lt;b&gt;EnvironmentModel&lt;/b&gt;&lt;/p&gt;&lt;hr size=&quot;1&quot;&gt;&lt;p style=&quot;margin:0 0 0 4px;line-height:1.6;&quot;&gt;width: int&lt;br&gt; height: int&amp;nbsp;&lt;br&gt; maze: Dict[ Tuple[int, int], Dict[str, int]]&lt;br&gt; survivors: List[Survivor]&lt;br&gt; save_zones: List[SaveZone]&lt;br&gt; datacollector: mesa.Datacollector&lt;/p&gt;&lt;p style=&quot;margin:0 0 0 4px;line-height:1.6;&quot;&gt;running: bool&lt;/p&gt;&lt;p style=&quot;margin:0 0 0 4px;line-height:1.6;&quot;&gt;total_tiles_moved: int&lt;/p&gt;&lt;p style=&quot;margin:0 0 0 4px;line-height:1.6;&quot;&gt;total_survivors_picked_up: int&lt;/p&gt;&lt;p style=&quot;margin:0 0 0 4px;line-height:1.6;&quot;&gt;total_survivors_placed_down: int&lt;/p&gt;&lt;p style=&quot;margin:0 0 0 4px;line-height:1.6;&quot;&gt;initial_pathlengths: List[int]&lt;/p&gt;&lt;p style=&quot;margin:0 0 0 4px;line-height:1.6;&quot;&gt;seed: float&lt;/p&gt;&lt;hr size=&quot;1&quot;&gt;&lt;p style=&quot;margin:0 0 0 4px;line-height:1.6;&quot;&gt; __init__(         self,         width: int,         height: int,         n_survivors: int,         n_save_zones: int,         n_robot_agents: int,         seed=None): &lt;br&gt; step(self): &lt;br&gt; _initialize_maze(         self, width: int, height: int     ): &lt;br&gt; _create_save_zones(self, n_save_zones: int): &lt;br&gt; _create_survivors(self, n_survivors: int): &lt;br&gt; all_survivors_rescued(self): &lt;br&gt; get_pathlengths_savezone_to_survivors(self, save_zone: SaveZone): &lt;br&gt; get_pathlengths_savezones_to_survivors(self): &lt;br&gt; get_pathlengths_savezone_to_savezones(self, save_zone: SaveZone): &lt;br&gt; get_max_pathlength(pathlengths: List[int]): &lt;br&gt; get_min_pathlength(pathlengths: List[int]): &lt;br&gt; get_mean_pathlength(pathlengths: List[int]): &lt;br&gt; get_mean_wall_density(self): &lt;br&gt; get_exit_count(self): &lt;br&gt; calculate_axial_symmetry(self):&lt;br&gt; visualize_graph(self): &lt;/p&gt;" style="verticalAlign=top;align=left;overflow=fill;fontSize=14;fontFamily=Helvetica;html=1;rounded=0;shadow=0;comic=0;labelBackgroundColor=none;strokeWidth=1;" parent="1" vertex="1">
          <mxGeometry x="2350" y="190" width="674" height="680" as="geometry" />
        </mxCell>
        <mxCell id="4nvozXcH-jkvKJfGcueD-4" style="edgeStyle=orthogonalEdgeStyle;rounded=0;orthogonalLoop=1;jettySize=auto;html=1;entryX=0.5;entryY=0;entryDx=0;entryDy=0;" edge="1" parent="1" source="node8" target="node7">
          <mxGeometry relative="1" as="geometry" />
        </mxCell>
        <mxCell id="node8" value="&lt;p style=&quot;margin:0px;margin-top:4px;text-align:center;&quot;&gt;&lt;b&gt;Position(ABC)&lt;/b&gt;&lt;/p&gt;&lt;hr size=&quot;1&quot;&gt;&lt;p style=&quot;margin:0 0 0 4px;line-height:1.6;&quot;&gt; x: int&lt;br&gt; y: int&lt;br&gt;&lt;/p&gt;&lt;hr size=&quot;1&quot;&gt;&lt;p style=&quot;margin:0 0 0 4px;line-height:1.6;&quot;&gt; __init__(self, x: int, y: int): &lt;/p&gt;" style="verticalAlign=top;align=left;overflow=fill;fontSize=14;fontFamily=Helvetica;html=1;rounded=0;shadow=0;comic=0;labelBackgroundColor=none;strokeWidth=1;" parent="1" vertex="1">
          <mxGeometry x="1800" y="-40" width="184" height="120" as="geometry" />
        </mxCell>
        <mxCell id="node0" value="&lt;p style=&quot;margin:0px;margin-top:4px;text-align:center;&quot;&gt;&lt;b&gt;RobotAgent&lt;/b&gt;&lt;/p&gt;&lt;hr size=&quot;1&quot;&gt;&lt;p style=&quot;margin:0 0 0 4px;line-height:1.6;&quot;&gt;model: mesa.Model&lt;/p&gt;&lt;p style=&quot;margin:0 0 0 4px;line-height:1.6;&quot;&gt;tile: Tile&lt;/p&gt;&lt;p style=&quot;margin:0 0 0 4px;line-height:1.6;&quot;&gt;transported_survivor: Survivor&lt;/p&gt;&lt;p style=&quot;margin:0 0 0 4px;line-height:1.6;&quot;&gt;tiles_moved: int&lt;/p&gt;&lt;p style=&quot;margin:0 0 0 4px;line-height:1.6;&quot;&gt;survivor_picked_up: int&lt;/p&gt;&lt;p style=&quot;margin:0 0 0 4px;line-height:1.6;&quot;&gt;survivor_placed_down: int&lt;/p&gt;&lt;p style=&quot;margin:0 0 0 4px;line-height:1.6;&quot;&gt;running: bool&lt;/p&gt;&lt;hr size=&quot;1&quot;&gt;&lt;p style=&quot;margin:0 0 0 4px;line-height:1.6;&quot;&gt; __init__(self, model, tile: Tile): &lt;br&gt; step(self): &lt;br&gt; place_down_survivor(self, rescued: bool = True): &lt;br&gt; pick_up_survivor(self): &lt;br&gt; move_to_save_zone(self): &lt;br&gt; move_to_survivor(self): &lt;br&gt; change_tile(self, tile: Tile): &lt;/p&gt;" style="verticalAlign=top;align=left;overflow=fill;fontSize=14;fontFamily=Helvetica;html=1;rounded=0;shadow=0;comic=0;labelBackgroundColor=none;strokeWidth=1;" parent="1" vertex="1">
          <mxGeometry x="1800" y="520" width="331" height="370" as="geometry" />
        </mxCell>
        <mxCell id="node5" value="&lt;p style=&quot;margin:0px;margin-top:4px;text-align:center;&quot;&gt;&lt;b&gt;SaveZone&lt;/b&gt;&lt;/p&gt;&lt;hr size=&quot;1&quot;&gt;&lt;p style=&quot;margin:0 0 0 4px;line-height:1.6;&quot;&gt; tile: Tile&lt;br&gt;&lt;/p&gt;&lt;hr size=&quot;1&quot;&gt;&lt;p style=&quot;margin:0 0 0 4px;line-height:1.6;&quot;&gt; __init__(self, tile: Tile): &lt;/p&gt;" style="verticalAlign=top;align=left;overflow=fill;fontSize=14;fontFamily=Helvetica;html=1;rounded=0;shadow=0;comic=0;labelBackgroundColor=none;strokeWidth=1;" parent="1" vertex="1">
          <mxGeometry x="2000" y="-40" width="178" height="122" as="geometry" />
        </mxCell>
        <mxCell id="4nvozXcH-jkvKJfGcueD-11" style="edgeStyle=orthogonalEdgeStyle;rounded=0;orthogonalLoop=1;jettySize=auto;html=1;exitX=0.75;exitY=0;exitDx=0;exitDy=0;" edge="1" parent="1" source="node10" target="node4">
          <mxGeometry relative="1" as="geometry" />
        </mxCell>
        <mxCell id="node10" value="&lt;p style=&quot;margin:0px;margin-top:4px;text-align:center;&quot;&gt;&lt;b&gt;Survivor&lt;/b&gt;&lt;/p&gt;&lt;hr size=&quot;1&quot;&gt;&lt;p style=&quot;margin:0 0 0 4px;line-height:1.6;&quot;&gt; tile: Tile&lt;br&gt; is_rescued: bool&lt;/p&gt;&lt;hr size=&quot;1&quot;&gt;&lt;p style=&quot;margin:0 0 0 4px;line-height:1.6;&quot;&gt; __init__(self, tile: Tile): &lt;br&gt; move(self, new_tile: Tile): &lt;br&gt; set_rescued(self): &lt;/p&gt;" style="verticalAlign=top;align=left;overflow=fill;fontSize=14;fontFamily=Helvetica;html=1;rounded=0;shadow=0;comic=0;labelBackgroundColor=none;strokeWidth=1;" parent="1" vertex="1">
          <mxGeometry x="2210" y="-40" width="189" height="170" as="geometry" />
        </mxCell>
        <mxCell id="4nvozXcH-jkvKJfGcueD-8" style="edgeStyle=orthogonalEdgeStyle;rounded=0;orthogonalLoop=1;jettySize=auto;html=1;entryX=0.5;entryY=1;entryDx=0;entryDy=0;exitX=0.628;exitY=0.003;exitDx=0;exitDy=0;exitPerimeter=0;" edge="1" parent="1" source="node7" target="node5">
          <mxGeometry relative="1" as="geometry" />
        </mxCell>
        <mxCell id="4nvozXcH-jkvKJfGcueD-9" style="edgeStyle=orthogonalEdgeStyle;rounded=0;orthogonalLoop=1;jettySize=auto;html=1;entryX=0.016;entryY=0.841;entryDx=0;entryDy=0;exitX=0.785;exitY=0.009;exitDx=0;exitDy=0;exitPerimeter=0;entryPerimeter=0;" edge="1" parent="1" source="node7" target="node10">
          <mxGeometry relative="1" as="geometry">
            <Array as="points">
              <mxPoint x="2161" y="103" />
            </Array>
          </mxGeometry>
        </mxCell>
        <mxCell id="4nvozXcH-jkvKJfGcueD-10" style="edgeStyle=orthogonalEdgeStyle;rounded=0;orthogonalLoop=1;jettySize=auto;html=1;" edge="1" parent="1" source="node7" target="node0">
          <mxGeometry relative="1" as="geometry" />
        </mxCell>
        <mxCell id="node7" value="&lt;p style=&quot;margin:0px;margin-top:4px;text-align:center;&quot;&gt;&lt;b&gt;Tile(Position)&lt;/b&gt;&lt;/p&gt;&lt;hr size=&quot;1&quot;&gt;&lt;p style=&quot;margin:0 0 0 4px;line-height:1.6;&quot;&gt; walls: Dict[str, int]&lt;br&gt;&lt;/p&gt;&lt;hr size=&quot;1&quot;&gt;&lt;p style=&quot;margin:0 0 0 4px;line-height:1.6;&quot;&gt; __init__(self, x: int, y: int, walls: Dict[str, int] = None): &lt;br&gt; get_tile_in_list_by_pos(pos_x: int, pos_y: int, tiles): &lt;br&gt; get_neighbors(self, tiles): &lt;br&gt; add_wall(self, neighbor): &lt;br&gt; remove_wall(self, neighbor): &lt;br&gt; remove_edge_walls(self, maze_width: int, maze_height: int): &lt;br&gt; check_tiles_connection(self, other): &lt;br&gt; transform_tiles_to_dict(tiles: List): &lt;br&gt; transform_dict_to_tiles(         maze_dict: Dict[Tuple[int, int], Dict[str, int]],     ): &lt;br&gt; transform_tiles_to_graph(tiles: List): &lt;br&gt; find_route(         maze: Dict[Tuple[int, int], Dict[str, int]], start_tile, target_tile     ): &lt;/p&gt;" style="verticalAlign=top;align=left;overflow=fill;fontSize=14;fontFamily=Helvetica;html=1;rounded=0;shadow=0;comic=0;labelBackgroundColor=none;strokeWidth=1;" parent="1" vertex="1">
          <mxGeometry x="1800" y="160" width="460" height="320" as="geometry" />
        </mxCell>
        <mxCell id="4nvozXcH-jkvKJfGcueD-1" style="edgeStyle=orthogonalEdgeStyle;rounded=0;orthogonalLoop=1;jettySize=auto;html=1;exitX=0.5;exitY=1;exitDx=0;exitDy=0;" edge="1" parent="1" source="node8" target="node8">
          <mxGeometry relative="1" as="geometry" />
        </mxCell>
        <mxCell id="4nvozXcH-jkvKJfGcueD-6" style="edgeStyle=orthogonalEdgeStyle;rounded=0;orthogonalLoop=1;jettySize=auto;html=1;exitX=0.5;exitY=1;exitDx=0;exitDy=0;" edge="1" parent="1" source="node0" target="node0">
          <mxGeometry relative="1" as="geometry" />
        </mxCell>
        <mxCell id="4nvozXcH-jkvKJfGcueD-7" style="edgeStyle=orthogonalEdgeStyle;rounded=0;orthogonalLoop=1;jettySize=auto;html=1;exitX=0.5;exitY=1;exitDx=0;exitDy=0;entryX=1;entryY=0.116;entryDx=0;entryDy=0;entryPerimeter=0;" edge="1" parent="1" source="node10" target="node0">
          <mxGeometry relative="1" as="geometry" />
        </mxCell>
        <mxCell id="4nvozXcH-jkvKJfGcueD-12" style="edgeStyle=orthogonalEdgeStyle;rounded=0;orthogonalLoop=1;jettySize=auto;html=1;entryX=0.123;entryY=-0.004;entryDx=0;entryDy=0;entryPerimeter=0;" edge="1" parent="1" source="node5" target="node4">
          <mxGeometry relative="1" as="geometry">
            <Array as="points">
              <mxPoint x="2089" y="-60" />
              <mxPoint x="2433" y="-60" />
            </Array>
          </mxGeometry>
        </mxCell>
        <mxCell id="4nvozXcH-jkvKJfGcueD-13" style="edgeStyle=orthogonalEdgeStyle;rounded=0;orthogonalLoop=1;jettySize=auto;html=1;exitX=0;exitY=0.75;exitDx=0;exitDy=0;entryX=0.988;entryY=0.408;entryDx=0;entryDy=0;entryPerimeter=0;" edge="1" parent="1" source="node4" target="node0">
          <mxGeometry relative="1" as="geometry">
            <Array as="points">
              <mxPoint x="2350" y="671" />
            </Array>
          </mxGeometry>
        </mxCell>
      </root>
    </mxGraphModel>
  </diagram>
</mxfile>
